<?xml version="1.0" standalone="no"?>
<!DOCTYPE svg PUBLIC "-//W3C//DTD SVG 20010904//EN"
 "http://www.w3.org/TR/2001/REC-SVG-20010904/DTD/svg10.dtd">
<svg version="1.0" xmlns="http://www.w3.org/2000/svg"
 width="70.000000pt" height="70.000000pt" viewBox="0 0 70.000000 70.000000"
 preserveAspectRatio="xMidYMid meet">
<metadata>
Created by potrace 1.14, written by Peter Selinger 2001-2017
</metadata>
<g transform="translate(0.000000,70.000000) scale(0.100000,-0.100000)"
fill="#000000" stroke="none">
<path d="M327 644 c-3 -4 -22 -8 -42 -9 -32 -2 -75 -34 -75 -55 0 -4 -9 -17
-20 -30 -11 -12 -17 -26 -15 -30 3 -4 -2 -10 -10 -13 -8 -4 -12 -15 -10 -27 2
-11 0 -18 -5 -15 -5 3 -19 -15 -31 -39 -12 -25 -26 -43 -30 -40 -5 3 -6 -2 -3
-10 3 -9 1 -16 -6 -16 -6 0 -9 -4 -5 -9 3 -6 -2 -14 -11 -19 -9 -5 -15 -11
-14 -13 1 -2 -3 -17 -9 -32 -14 -37 -14 -50 1 -41 6 4 8 3 4 -4 -7 -12 24 -92
36 -92 5 0 8 -6 8 -12 0 -7 11 -25 23 -40 19 -22 26 -25 37 -15 8 8 11 8 7 1
-4 -7 5 -13 23 -16 17 -3 30 -1 30 3 0 4 14 4 30 -1 17 -5 30 -5 30 0 0 5 13
5 30 0 17 -5 30 -5 30 0 0 5 13 5 30 0 17 -5 30 -5 30 0 0 5 13 5 30 0 17 -5
30 -5 30 0 0 5 13 5 30 0 20 -6 30 -5 30 2 0 6 6 6 15 -2 12 -10 15 -9 15 6 0
16 2 17 10 4 8 -12 10 -12 10 -1 0 8 3 12 6 8 7 -7 51 54 65 90 5 13 14 23 20
23 7 0 9 3 6 6 -3 4 -2 15 3 25 7 12 6 19 -3 22 -8 4 -9 6 0 6 12 1 -12 60
-30 72 -5 3 -8 8 -8 10 2 14 -13 48 -19 44 -4 -3 -11 2 -14 11 -4 10 -2 13 7
8 8 -5 8 -2 -2 9 -7 9 -17 14 -22 11 -5 -3 -6 2 -2 11 3 10 0 21 -7 25 -8 5
-15 17 -16 27 -2 9 -8 19 -14 21 -5 2 -8 8 -4 13 3 5 0 9 -5 9 -6 0 -11 6 -11
13 0 14 -70 105 -70 91 0 -5 -5 -2 -10 6 -8 12 -10 12 -10 1 0 -10 -3 -11 -13
-2 -8 6 -17 8 -21 4 -10 -10 -40 -10 -47 0 -3 4 -8 4 -12 1z m36 -207 c4 3 7
-4 7 -16 0 -12 6 -24 14 -27 8 -3 17 -12 20 -20 4 -10 1 -13 -7 -9 -6 4 -3 -1
7 -9 11 -9 16 -16 10 -16 -5 0 -4 -4 2 -8 18 -11 46 -72 34 -72 -6 0 -9 -4 -6
-9 4 -5 -3 -7 -14 -4 -11 3 -17 10 -13 17 3 6 0 6 -8 -1 -15 -15 -43 -17 -34
-3 3 6 -1 7 -9 4 -9 -3 -13 -11 -9 -17 4 -6 1 -7 -8 -1 -22 14 -89 14 -90 1 0
-7 -4 -3 -9 8 -5 13 -3 26 8 38 8 9 12 17 8 17 -3 0 0 10 9 23 8 13 12 27 8
31 -5 4 -1 6 7 4 8 -2 14 3 13 10 -2 6 2 12 8 12 6 0 8 7 5 15 -3 9 1 18 10
22 9 3 13 12 10 22 -5 13 -4 13 7 -1 8 -10 17 -15 20 -11z"/>
</g>
</svg>
